HIERARCHY
ROOT Hips
{
	OFFSET 0.000000 0.000000 0.000000
	CHANNELS 6 Xposition Yposition Zposition Zrotation Yrotation Xrotation 
	JOINT LHipJoint
	{
		OFFSET 0.000000 0.000000 0.000000
		CHANNELS 3 Zrotation Yrotation Xrotation
		JOINT LeftUpLeg
		{
			OFFSET 1.363060 -1.794630 0.839290
			CHANNELS 3 Zrotation Yrotation Xrotation
			JOINT LeftLeg
			{
				OFFSET 2.448110 -6.726130 0.000000
				CHANNELS 3 Zrotation Yrotation Xrotation
				JOINT LeftFoot
				{
					OFFSET 2.562200 -7.039590 0.000000
					CHANNELS 3 Zrotation Yrotation Xrotation
					JOINT LeftToeBase
					{
						OFFSET 0.157640 -0.433110 2.322550
						CHANNELS 3 Zrotation Yrotation Xrotation
						End Site
						{
							OFFSET 0.000000 0.000000 0.000000
						}
					}
				}
			}
		}
	}
	JOINT RHipJoint
	{
		OFFSET 0.000000 0.000000 0.000000
		CHANNELS 3 Zrotation Yrotation Xrotation
		JOINT RightUpLeg
		{
			OFFSET -1.305520 -1.794630 0.839290
			CHANNELS 3 Zrotation Yrotation Xrotation
			JOINT RightLeg
			{
				OFFSET -2.542530 -6.985550 0.000000
				CHANNELS 3 Zrotation Yrotation Xrotation
				JOINT RightFoot
				{
					OFFSET -2.568260 -7.056230 0.000000
					CHANNELS 3 Zrotation Yrotation Xrotation
					JOINT RightToeBase
					{
						OFFSET -0.164730 -0.452590 2.363150
						CHANNELS 3 Zrotation Yrotation Xrotation
						End Site
						{
							OFFSET 0.000000 0.000000 0.000000
						}
					}
				}
			}
		}
	}
	JOINT LowerBack
	{
		OFFSET 0.000000 0.000000 0.000000
		CHANNELS 3 Zrotation Yrotation Xrotation
		JOINT Spine
		{
			OFFSET 0.028270 2.035590 -0.193380
			CHANNELS 3 Zrotation Yrotation Xrotation
			JOINT Spine1
			{
				OFFSET 0.056720 2.048850 -0.042750
				CHANNELS 3 Zrotation Yrotation Xrotation
				JOINT Neck
				{
					OFFSET 0.000000 0.000000 0.000000
					CHANNELS 3 Zrotation Yrotation Xrotation
					JOINT Neck1
					{
						OFFSET -0.054170 1.746240 0.172020
						CHANNELS 3 Zrotation Yrotation Xrotation
						JOINT Head
						{
							OFFSET 0.104070 1.761360 -0.123970
							CHANNELS 3 Zrotation Yrotation Xrotation
							End Site
							{
								OFFSET 0.000000 0.000000 0.000000
							}
						}
					}
				}
				JOINT LeftShoulder
				{
					OFFSET 0.000000 0.000000 0.000000
					CHANNELS 3 Zrotation Yrotation Xrotation
					JOINT LeftArm
					{
						OFFSET 3.362410 1.200890 -0.311210
						CHANNELS 3 Zrotation Yrotation Xrotation
						JOINT LeftForeArm
						{
							OFFSET 4.983000 -0.000000 -0.000000
							CHANNELS 3 Zrotation Yrotation Xrotation
							JOINT LeftHand
							{
								OFFSET 3.483560 -0.000000 -0.000000
								CHANNELS 3 Zrotation Yrotation Xrotation
								JOINT LeftFingerBase
								{
									OFFSET 0.000000 0.000000 0.000000
									CHANNELS 3 Zrotation Yrotation Xrotation
									JOINT LeftHandIndex1
									{
										OFFSET 0.715260 -0.000000 -0.000000
										CHANNELS 3 Zrotation Yrotation Xrotation
										End Site
										{
											OFFSET 0.000000 0.000000 0.000000
										}
									}
								}
								JOINT LThumb
								{
									OFFSET 0.000000 0.000000 0.000000
									CHANNELS 3 Zrotation Yrotation Xrotation
									End Site
									{
										OFFSET 0.000000 0.000000 0.000000
									}
								}
							}
						}
					}
				}
				JOINT RightShoulder
				{
					OFFSET 0.000000 0.000000 0.000000
					CHANNELS 3 Zrotation Yrotation Xrotation
					JOINT RightArm
					{
						OFFSET -3.136600 1.374050 -0.404650
						CHANNELS 3 Zrotation Yrotation Xrotation
						JOINT RightForeArm
						{
							OFFSET -5.241900 -0.000000 -0.000000
							CHANNELS 3 Zrotation Yrotation Xrotation
							JOINT RightHand
							{
								OFFSET -3.444170 -0.000000 -0.000000
								CHANNELS 3 Zrotation Yrotation Xrotation
								JOINT RightFingerBase
								{
									OFFSET 0.000000 0.000000 0.000000
									CHANNELS 3 Zrotation Yrotation Xrotation
									JOINT RightHandIndex1
									{
										OFFSET -0.622530 -0.000000 -0.000000
										CHANNELS 3 Zrotation Yrotation Xrotation
										End Site
										{
											OFFSET 0.000000 0.000000 0.000000
										}
									}
								}
								JOINT RThumb
								{
									OFFSET 0.000000 0.000000 0.000000
									CHANNELS 3 Zrotation Yrotation Xrotation
									End Site
									{
										OFFSET 0.000000 0.000000 0.000000
									}
								}
							}
						}
					}
				}
			}
		}
	}
}
MOTION
Frames: 6
Frame Time: 0.008333
51.141901 17.047643 -4.711068 -112.472031 -88.768993 114.024839 4.924735 2.173056 -0.844393 -22.642955 1.021457 -7.627106 1.109546 8.093179 24.162490 0.606706 -0.630732 -12.295416 0.020700 -0.929300 -2.554300 -7.676019 -1.936523 -2.057048 28.842528 5.387970 -9.766061 -4.473200 -12.094561 36.688389 -1.898208 -3.074874 -27.985548 -0.611000 -5.003100 13.917300 0.895645 0.266503 2.600696 0.373831 0.409923 -1.603740 -0.792739 -0.039505 4.416686 -3.962598 -2.604768 -11.881343 5.667802 -3.396951 4.964922 1.991900 -1.489700 3.645200 -7.771176 -7.458701 1.143937 -76.076757 0.426705 28.409982 16.869314 -25.529223 -5.080392 -1.237616 -0.849194 -15.441337 21.343347 16.473197 6.926500 -7.125000 0.000000 0.000000 -4.938500 48.080600 -0.376200 8.865251 7.208413 1.045770 72.344706 -5.106464 31.623031 -18.360433 29.079770 -5.415816 0.499204 -0.614551 -9.109665 -24.371838 2.009038 -1.269500 7.125000 0.000000 0.000000 1.397900 -26.948100 0.612800 
51.135420 17.047438 -4.716418 -110.548966 -88.732397 112.072608 4.928286 2.162360 -0.847780 -22.573863 0.993680 -7.560020 1.112653 8.087327 24.165646 0.609460 -0.632201 -12.327188 0.020300 -0.920400 -2.529900 -7.674414 -1.948829 -2.050945 28.932392 5.410481 -9.651253 -4.456576 -12.072236 36.612096 -1.904807 -3.092461 -28.038543 -0.617400 -5.028700 13.990400 0.932832 0.261942 2.573579 0.385084 0.402525 -1.612068 -0.755582 -0.047073 4.400136 -3.940202 -2.595515 -11.878115 5.666485 -3.389179 4.982729 1.979200 -1.485800 3.655300 -7.744208 -7.467816 1.146164 -76.116048 0.286597 28.914004 17.320475 -25.991898 -5.269072 -1.215065 -0.857721 -15.772039 21.233387 16.446801 6.877300 -7.125000 0.000000 0.000000 -5.055600 48.043600 -0.380500 8.865913 7.211225 1.042596 72.303044 -5.157655 31.591438 -18.355729 29.073202 -5.415058 0.501346 -0.612823 -9.153107 -24.384280 1.993422 -1.262600 7.125000 0.000000 0.000000 1.387000 -26.966200 0.607400 
51.128321 17.046512 -4.721665 -109.576937 -88.689205 111.060829 4.928393 2.157945 -0.848491 -22.502872 0.978361 -7.491716 1.117619 8.086931 24.181037 0.613416 -0.636395 -12.369051 0.020000 -0.913300 -2.510300 -7.678286 -1.953124 -2.049519 29.033729 5.469212 -9.509558 -4.441783 -12.049914 36.542339 -1.912914 -3.130495 -28.113648 -0.622900 -5.050700 14.053400 0.973838 0.257991 2.544133 0.396038 0.395006 -1.617505 -0.724429 -0.053030 4.394157 -3.914781 -2.583620 -11.869978 5.658467 -3.378325 4.996789 1.961600 -1.480700 3.658700 -7.718813 -7.473393 1.149415 -76.151085 0.150362 29.405510 17.755637 -26.434111 -5.452856 -1.191785 -0.865052 -16.076847 21.103356 16.399835 6.813300 -7.125000 0.000000 0.000000 -5.188300 47.982200 -0.382700 8.868423 7.212688 1.040721 72.258266 -5.197762 31.563947 -18.337660 29.053955 -5.408384 0.503271 -0.611286 -9.154434 -24.398061 1.972440 -1.253300 7.125000 0.000000 0.000000 1.374700 -26.990200 0.601200 
51.120708 17.045071 -4.726500 -109.572044 -88.640749 111.009356 4.925850 2.160222 -0.846203 -22.434229 0.968685 -7.416762 1.123845 8.090922 24.205898 0.618135 -0.638189 -12.425337 0.019500 -0.900700 -2.475700 -7.686159 -1.949653 -2.053405 29.140309 5.547082 -9.347070 -4.429296 -12.027702 36.480184 -1.922322 -3.175522 -28.200424 -0.628800 -5.074000 14.119800 1.020278 0.255078 2.514246 0.406159 0.387905 -1.620091 -0.702383 -0.056954 4.400555 -3.884258 -2.569399 -11.867294 5.642494 -3.364288 5.011741 1.938000 -1.474300 3.662200 -7.695310 -7.475837 1.153210 -76.180670 0.012867 29.884535 18.170291 -26.851407 -5.629955 -1.168978 -0.871021 -16.351672 20.970811 16.340334 6.743700 -7.125000 0.000000 0.000000 -5.320200 47.906800 -0.382600 8.872525 7.213743 1.039803 72.211717 -5.222417 31.536791 -18.301834 29.017245 -5.394163 0.504599 -0.610504 -9.109417 -24.415995 1.958399 -1.247600 7.125000 0.000000 0.000000 1.359400 -27.006100 0.594000 
51.113609 17.043425 -4.731335 -108.577138 -88.594702 109.968479 4.926519 2.155356 -0.848571 -22.362352 0.957404 -7.350952 1.131307 8.095798 24.236754 0.623681 -0.651771 -12.474037 0.019100 -0.891400 -2.449900 -7.691096 -1.953053 -2.052213 29.249177 5.624022 -9.200519 -4.417224 -12.009261 36.423418 -1.930905 -3.231811 -28.290889 -0.633500 -5.092600 14.172900 1.075464 0.239327 2.480867 0.417354 0.364289 -1.621903 -0.685234 -0.070718 4.414477 -3.853621 -2.551381 -11.872542 5.623357 -3.344488 5.025223 1.913100 -1.465200 3.665700 -7.673827 -7.479599 1.158017 -76.204316 -0.137085 30.341371 18.556542 -27.235132 -5.796352 -1.147565 -0.874856 -16.587999 20.846597 16.267089 6.671500 -7.125000 0.000000 0.000000 -5.440200 47.816800 -0.379100 8.877343 7.212918 1.038896 72.166704 -5.224628 31.504038 -18.244552 28.958185 -5.370635 0.505130 -0.610913 -9.013197 -24.438885 1.956312 -1.247900 7.125000 0.000000 0.000000 1.340700 -27.008000 0.585800 
51.107127 17.041985 -4.736274 -107.045173 -88.554719 108.408058 4.928702 2.146405 -0.853535 -22.293423 0.943117 -7.293711 1.138867 8.100824 24.269120 0.629930 -0.674843 -12.516215 0.018700 -0.884000 -2.429600 -7.694037 -1.960805 -2.048528 29.350456 5.686757 -9.075496 -4.406178 -11.994155 36.373692 -1.938679 -3.285075 -28.375286 -0.638000 -5.110300 14.223400 1.132485 0.215458 2.445765 0.428152 0.330526 -1.622669 -0.674617 -0.090288 4.433844 -3.823720 -2.530318 -11.880598 5.606110 -3.320265 5.031919 1.890600 -1.453800 3.664700 -7.655319 -7.484013 1.164259 -76.218282 -0.299915 30.785128 18.912828 -27.584347 -5.950507 -1.127490 -0.877005 -16.784786 20.725885 16.182854 6.596500 -7.125000 0.000000 0.000000 -5.553300 47.714800 -0.373100 8.881909 7.210984 1.038388 72.129444 -5.207333 31.454047 -18.168150 28.879434 -5.339316 0.505078 -0.612542 -8.872091 -24.470494 1.963436 -1.253500 7.125000 0.000000 0.000000 1.315400 -26.998500 0.575000 
